<svg xmlns="http://www.w3.org/2000/svg" xmlns:xlink="http://www.w3.org/1999/xlink" viewBox="0,0,256,256" width="500px" height="500px"><g fill="#e4c46a" fill-rule="nonzero" stroke="none" stroke-width="1" stroke-linecap="butt" stroke-linejoin="miter" stroke-miterlimit="10" stroke-dasharray="" stroke-dashoffset="0" font-family="none" font-weight="none" font-size="none" text-anchor="none" style="mix-blend-mode: normal"><g transform="scale(5.12,5.12)"><path d="M5,2c-2.757,0 -5,2.243 -5,5v24c0,2.757 2.243,5 5,5h37v-30h-32.10156c-0.464,-2.279 -2.48344,-4 -4.89844,-4zM5,4c1.654,0 3,1.346 3,3v20.02539c-0.838,-0.635 -1.87,-1.02539 -3,-1.02539c-1.13,0 -2.162,0.39039 -3,1.02539v-20.02539c0,-1.654 1.346,-3 3,-3zM44,10c-0.36064,-0.0051 -0.69608,0.18438 -0.87789,0.49587c-0.18181,0.3115 -0.18181,0.69676 0,1.00825c0.18181,0.3115 0.51725,0.50097 0.87789,0.49587v26h-35c-0.75212,0 -1.42415,-0.28236 -1.96094,-0.75195c-0.26772,-0.24226 -0.64524,-0.32141 -0.98772,-0.20708c-0.34248,0.11433 -0.59675,0.40438 -0.66526,0.75888c-0.06851,0.3545 0.05939,0.71841 0.33462,0.95211c0.86921,0.7604 2.01741,1.24805 3.2793,1.24805h37v-30zM29,13h6v6l-2.34961,-2.34961l-6.71875,6.35547l-5,-5.25l-5.60937,5.30469l-1.375,-1.45312l7.05859,-6.67383l5,5.25l5.23047,-4.94727zM48,14c-0.36064,-0.0051 -0.69608,0.18438 -0.87789,0.49587c-0.18181,0.3115 -0.18181,0.69676 0,1.00825c0.18181,0.3115 0.51725,0.50097 0.87789,0.49587v26h-35c-0.75212,0 -1.42415,-0.28236 -1.96094,-0.75195c-0.26772,-0.24227 -0.64524,-0.32142 -0.98772,-0.20709c-0.34249,0.11433 -0.59675,0.40438 -0.66526,0.75889c-0.06851,0.35451 0.05939,0.71841 0.33462,0.95211c0.86921,0.7604 2.01741,1.24805 3.2793,1.24805h37v-30zM14,27h21v2h-21z"></path></g></g></svg>