<svg xmlns="http://www.w3.org/2000/svg"  viewBox="0 0 16 16" width="480px" height="480px"><path fill="#ba9b48" d="M2,7.5c0-2.742,1.476-5.134,3.673-6.442C2.475,1.465,0,4.191,0,7.5s2.475,6.035,5.673,6.442 C3.476,12.634,2,10.242,2,7.5z"/><path fill="#4e7ab5" d="M15.5,5c-0.98-2.349-3.297-4-6-4s-5.02,1.651-6,4H15.5z"/><path fill="#4e7ab5" d="M3.181,6c-0.077,0.325-0.13,0.658-0.156,1h12.949c-0.026-0.342-0.079-0.675-0.156-1H3.181z"/><path fill="#4e7ab5" d="M15.819,9c0.077-0.325,0.13-0.658,0.156-1H3.025c0.026,0.342,0.079,0.675,0.156,1H15.819z"/><path fill="#4e7ab5" d="M3.5,10c0.98,2.349,3.297,4,6,4s5.02-1.651,6-4H3.5z"/><g><path fill="#8bb7f0" d="M5.76,10c0.807,1.205,2.18,2,3.74,2s2.933-0.795,3.74-2H5.76z"/></g></svg>