<svg xmlns="http://www.w3.org/2000/svg" xmlns:xlink="http://www.w3.org/1999/xlink" viewBox="0,0,256,256" width="288px" height="288px"><g fill="#e4c46a" fill-rule="nonzero" stroke="none" stroke-width="1" stroke-linecap="butt" stroke-linejoin="miter" stroke-miterlimit="10" stroke-dasharray="" stroke-dashoffset="0" font-family="none" font-weight="none" font-size="none" text-anchor="none" style="mix-blend-mode: normal"><g transform="scale(5.33333,5.33333)"><path d="M24.02734,4.00391c-12.144,0 -22,9.856 -22,22c0,9.89817 6.54917,18.27292 15.54688,21.0332c-7.28247,0.07028 -12.54688,0.25297 -12.54688,0.46875c0,0.276 8.512,0.5 19,0.5c10.488,0 19,-0.224 19,-0.5c0,-0.21575 -5.26426,-0.39844 -12.54492,-0.46875c8.99763,-2.76033 15.54688,-11.13509 15.54688,-21.0332c0,-12.144 -9.85795,-22 -22.00195,-22zM16.0293,7.99805c0.0795,-0.00238 0.14684,0.00598 0.21484,0.02148c0.536,0.124 0.87205,0.66222 0.74805,1.19922c-0.077,0.336 -0.31583,0.59277 -0.79883,0.75977c-2.165,0.617 -4.02759,1.34608 -5.18359,2.70508c-0.116,0.142 -0.309,0.21492 -0.5,0.16992c-0.269,-0.061 -0.43695,-0.33961 -0.37695,-0.59961c0.313,-1.359 2.71842,-3.64184 5.60742,-4.21484c0.117,-0.026 0.20956,-0.03864 0.28906,-0.04102zM24.00586,13.99805l18,9l-8,4.00195v-3.25391c0,-1.451 -1.65361,-2.32894 -3.22461,-2.83594c-1.767,-0.571 -4.16239,-0.91211 -6.77539,-0.91211c-2.616,0 -5.00839,0.34111 -6.77539,0.91211c-1.588,0.512 -3.22461,1.38894 -3.22461,2.83594v3.25391l-3,-1.5v6.58203c0.583,0.207 1.00391,0.76402 1.00391,1.41602l-0.00195,0.5c0.746,0.336 1,0.94305 1,1.49805c0,1.655 -1.22705,3.16895 -2.49805,4.50195c-1.272,-1.333 -2.50391,-2.84695 -2.50391,-4.50195c0,-0.556 0.26,-1.164 1,-1.5v-0.49609c0,-0.651 0.419,-1.20606 1,-1.41406v-7.08594l-4,-2.00195zM24.00781,20.99805c4.967,0 9,1.32027 9,2.94727v8.10742c0,1.628 -4.032,2.94727 -9,2.94727c-4.968,0 -9,-1.31927 -9,-2.94727l-0.00195,-0.15234c0.092,-1.029 2.1508,-1.8332 2.8418,-2.0332c0.199,-0.058 0.3928,-0.12464 0.5918,-0.18164c0.492,-0.14 1.00291,-0.274 1.50391,-0.375c0.609,-0.124 1.20731,-0.24652 1.82031,-0.35352c0.704,-0.123 1.41114,-0.23398 2.11914,-0.33398c-0.65,-0.068 -1.33333,-0.16139 -1.98633,-0.15039c-0.504,0.008 -1.00381,-0.00689 -1.50781,0.03711c-0.481,0.043 -0.94878,0.09302 -1.42578,0.16602c-1.133,0.174 -2.86803,0.61677 -3.95703,1.50977l0.00195,-6.24023c0,-1.627 4.032,-2.94727 9,-2.94727z"></path></g></g></svg>