<svg xmlns="http://www.w3.org/2000/svg" xmlns:xlink="http://www.w3.org/1999/xlink" viewBox="0,0,256,256" width="500px" height="500px"><g fill="#e4c46a" fill-rule="nonzero" stroke="none" stroke-width="1" stroke-linecap="butt" stroke-linejoin="miter" stroke-miterlimit="10" stroke-dasharray="" stroke-dashoffset="0" font-family="none" font-weight="none" font-size="none" text-anchor="none" style="mix-blend-mode: normal"><g transform="scale(5.12,5.12)"><path d="M20,3c-1.64506,0 -3,1.35494 -3,3v3h-14c-1.654,0 -3,1.346 -3,3v13c0,1.654 1.346,3 3,3h29.09375c2.003,-1.26 4.36525,-2 6.90625,-2c2.541,0 4.90325,0.74 6.90625,2h1.09375c1.654,0 3,-1.346 3,-3v-13c0,-1.654 -1.346,-3 -3,-3h-14v-3c0,-1.64506 -1.35494,-3 -3,-3zM20,5h10c0.56294,0 1,0.43706 1,1v3h-12v-3c0,-0.56294 0.43706,-1 1,-1zM25,22c1.104,0 2,0.896 2,2c0,1.104 -0.896,2 -2,2c-1.104,0 -2,-0.896 -2,-2c0,-1.104 0.896,-2 2,-2zM0,27v17c0,1.654 1.346,3 3,3h25.76758c-1.728,-2.207 -2.76758,-4.98 -2.76758,-8c0,-3.496 1.38681,-6.664 3.63281,-9h-26.63281c-1.654,0 -3,-1.346 -3,-3zM36.90039,28l-0.5,3.19922c-0.3,0.1 -0.7,0.30039 -1,0.40039l-2.70117,-1.90039l-3,3l1.80078,2.5c-0.2,0.3 -0.30039,0.70156 -0.40039,1.10156l-3.09961,0.5v4.19922l3.09961,0.5c0.1,0.3 0.30039,0.7 0.40039,1l-1.80078,2.69922l3,3l2.70117,-1.79883c0.4,0.2 0.69961,0.30039 1.09961,0.40039l0.40039,3.19922h4.19922l0.5,-3.19922c0.3,-0.1 0.7,-0.30039 1,-0.40039l2.70117,1.79883l3,-3l-1.90039,-2.59961c0.2,-0.3 0.30039,-0.7 0.40039,-1l3.19922,-0.59961v-4.19922l-3.19922,-0.5c-0.1,-0.3 -0.30039,-0.7 -0.40039,-1l1.79883,-2.70117l-2.89844,-2.90039l-2.60156,1.90039c-0.3,-0.2 -0.7,-0.30039 -1,-0.40039l-0.59961,-3.19922zM39,36c1.7,0 3,1.3 3,3c0,1.7 -1.3,3 -3,3c-1.7,0 -3,-1.3 -3,-3c0,-1.7 1.3,-3 3,-3z"></path></g></g></svg>